<svg id="star" xmlns="http://www.w3.org/2000/svg" viewBox="0 0 247.97 248">
  <path d="m123.99,0c4.81,82.58,4.85,165.42,0,248-4.85-82.58-4.81-165.42,0-248h0Z"/>
  <g>
    <line class="cls-1" x1="247.97" y1="122.23" y2="125.77"/>
    <path d="m247.97,122.23C165.47,128.22,82.64,129.44,0,125.77c82.5-6.03,165.34-7.17,247.97-3.54h0Z"/>
  </g>
  <g>
    <line class="cls-1" x1="211.67" y1="211.68" x2="36.31" y2="36.32"/>
    <path d="m211.67,211.68c-61.8-54.99-120.4-113.54-175.36-175.36,61.82,54.96,120.37,113.57,175.36,175.36h0Z"/>
  </g>
  <g>
    <line class="cls-1" x1="37.57" y1="212.92" x2="210.41" y2="35.08"/>
    <path d="m37.57,212.92c54.1-62.57,111.81-122.01,172.84-177.85-54.07,62.6-111.84,121.98-172.84,177.85h0Z"/>
  </g>
  <g>
    <line class="cls-1" x1="78.52" y1="10.4" x2="169.45" y2="241.13"/>
    <path d="m78.52,10.4c34.76,75.06,65.17,152.12,90.93,230.73C134.66,166.08,104.32,89,78.52,10.4h0Z"/>
  </g>
  <g>
    <line class="cls-1" x1="237.69" y1="77.66" x2="8.28" y2="171.88"/>
    <path d="m237.69,77.66C163.13,113.48,86.51,144.99,8.28,171.88c74.54-35.86,151.19-67.29,229.41-94.21h0Z"/>
  </g>
  <g>
    <line class="cls-1" x1="238.71" y1="174.19" x2="11.26" y2="75.34"/>
    <path d="m238.71,174.19c-77.65-28.5-153.65-61.49-227.45-98.85,77.67,28.47,153.63,61.52,227.45,98.85h0Z"/>
  </g>
  <g>
    <line class="cls-1" x1="76.19" y1="240.19" x2="171.79" y2="11.35"/>
    <path d="m76.19,240.19c27.39-78.05,59.29-154.51,95.6-228.83-27.35,78.07-59.32,154.49-95.6,228.83h0Z"/>
  </g>
</svg>